<svg width="191" height="38" viewBox="0 0 191 38" fill="none" xmlns="http://www.w3.org/2000/svg">
<path d="M20.7043 24.3283L19.1395 28.7619H19.0091C18.7483 27.7621 18.2702 26.2408 17.4878 24.4152L9.09882 3.3341H0.883705V36.9335H6.31699V16.2001L6.27352 11.5927C6.23005 10.6799 6.14312 9.98444 6.09966 9.46284H6.23005C6.49085 10.7668 6.79511 11.7231 7.01244 12.3316L17.0966 36.8466H20.9216L30.9189 12.1143C31.1362 11.5492 31.3535 10.4191 31.5709 9.46284H31.7013L31.4405 15.5047V36.8031H37.2215V3.24717H29.3106L20.7043 24.3283ZM42.6982 12.7228H48.3488V36.8031H42.6982V12.7228ZM45.567 2.55171C44.6107 2.55171 43.8284 2.89944 43.1764 3.50797C42.5244 4.11649 42.1766 4.89889 42.1766 5.85514C42.1706 6.28804 42.2565 6.71729 42.4289 7.11445C42.6012 7.5116 42.856 7.8676 43.1764 8.15885C43.8284 8.76738 44.6107 9.07165 45.567 9.07165C46.5233 9.07165 47.3491 8.72392 47.9576 8.15885C48.278 7.8676 48.5328 7.5116 48.7051 7.11445C48.8775 6.71729 48.9635 6.28804 48.9574 5.85514C48.9574 4.94235 48.6096 4.15996 47.9576 3.50797C47.3926 2.89944 46.5667 2.55171 45.567 2.55171ZM68.3868 12.5055C67.3436 12.2881 66.2569 12.1577 65.2138 12.1577C62.6492 12.1577 60.3021 12.7228 58.3461 13.8529C56.3901 14.9831 54.8253 16.5478 53.8256 18.5038C52.7824 20.5033 52.2608 22.807 52.2608 25.4584C52.2608 27.7621 52.7824 29.805 53.7821 31.6741C54.7818 33.4997 56.1728 34.9775 58.0418 35.9773C59.8239 36.977 61.9103 37.4986 64.2575 37.4986C66.9524 37.4986 69.2561 36.9335 71.0817 35.8903L71.1252 35.8469V30.6309L70.9078 30.8048C70.082 31.4133 69.1257 31.9349 68.1695 32.2392C67.1697 32.5869 66.2569 32.7608 65.4746 32.7608C63.2143 32.7608 61.4322 32.1088 60.1717 30.6744C58.8677 29.2835 58.2157 27.3709 58.2157 24.9803C58.2157 22.5027 58.8677 20.5467 60.2151 19.1123C61.5626 17.678 63.3447 16.939 65.518 16.939C67.3436 16.939 69.2127 17.5476 70.9078 18.7646L71.1252 18.9385V13.4183L71.0817 13.3748C70.3428 13.0705 69.5169 12.7228 68.3868 12.5055ZM87.0338 12.3316C85.6429 12.3316 84.3389 12.7663 83.2088 13.6791C82.2525 14.4615 81.6005 15.5916 81.0355 16.939H80.992V12.7228H75.3414V36.8031H80.992V24.5022C80.992 22.4158 81.4267 20.6771 82.3829 19.4166C83.3392 18.1126 84.5562 17.4606 86.0341 17.4606C86.5557 17.4606 87.0773 17.591 87.7293 17.678C88.3378 17.8518 88.7725 18.0257 89.0767 18.243L89.2941 18.4169V12.7663L89.1637 12.7228C88.7725 12.462 87.9901 12.3316 87.0338 12.3316ZM102.421 12.2012C98.4654 12.2012 95.2924 13.3748 93.0756 15.6785C90.8154 17.9822 89.7287 21.1553 89.7287 25.1542C89.7287 28.8923 90.8588 31.9349 93.0322 34.1517C95.2055 36.325 98.1612 37.4551 101.856 37.4551C105.724 37.4551 108.81 36.2815 111.027 33.9343C113.287 31.5872 114.374 28.4576 114.374 24.5891C114.374 20.7641 113.331 17.7214 111.201 15.5047C109.158 13.2879 106.159 12.2012 102.421 12.2012ZM106.941 30.7178C105.898 32.0653 104.246 32.7173 102.204 32.7173C100.161 32.7173 98.5089 32.0653 97.3353 30.6309C96.1617 29.2835 95.5967 27.3275 95.5967 24.8499C95.5967 22.2854 96.2052 20.3294 97.3353 18.9385C98.5089 17.5476 100.117 16.8521 102.16 16.8521C104.16 16.8521 105.724 17.5041 106.854 18.8516C107.985 20.199 108.593 22.155 108.593 24.7195C108.506 27.3275 108.028 29.3704 106.941 30.7178ZM126.979 22.72C125.197 21.9811 124.067 21.4161 123.545 20.9379C123.111 20.5033 122.893 19.8947 122.893 19.1123C122.893 18.4604 123.154 17.8084 123.806 17.3737C124.458 16.939 125.197 16.7217 126.284 16.7217C127.24 16.7217 128.24 16.8956 129.196 17.1564C130.152 17.4172 131.022 17.8084 131.717 18.33L131.934 18.5038V13.2009L131.804 13.1575C131.152 12.8967 130.283 12.6359 129.24 12.4185C128.196 12.2447 127.24 12.1577 126.458 12.1577C123.763 12.1577 121.546 12.8097 119.807 14.2441C118.069 15.5916 117.243 17.4172 117.243 19.547C117.243 20.6771 117.417 21.6769 117.808 22.5027C118.199 23.3286 118.764 24.111 119.547 24.763C120.329 25.3715 121.459 26.067 123.024 26.7189C124.328 27.284 125.328 27.7187 125.936 28.0664C126.545 28.4141 126.936 28.8053 127.24 29.1096C127.457 29.4573 127.588 29.892 127.588 30.457C127.588 32.0653 126.371 32.8477 123.893 32.8477C122.937 32.8477 121.937 32.6738 120.764 32.2826C119.59 31.8914 118.503 31.3264 117.591 30.6744L117.373 30.5005V36.0207L117.504 36.0642C118.33 36.4554 119.329 36.7162 120.546 37.0204C121.763 37.2378 122.85 37.4116 123.806 37.4116C126.718 37.4116 129.109 36.7596 130.804 35.3253C132.543 33.9343 133.456 32.1522 133.456 29.8485C133.456 28.2403 133.021 26.8059 132.065 25.7192C130.804 24.676 129.24 23.5894 126.979 22.72ZM148.365 12.2012C144.409 12.2012 141.236 13.3748 139.019 15.6785C136.803 17.9822 135.673 21.1553 135.673 25.1542C135.673 28.8923 136.803 31.9349 138.976 34.1517C141.149 36.325 144.105 37.4551 147.8 37.4551C151.668 37.4551 154.754 36.2815 156.971 33.9343C159.231 31.5872 160.318 28.4576 160.318 24.5891C160.318 20.7641 159.275 17.7214 157.145 15.5047C155.102 13.2879 152.103 12.2012 148.365 12.2012ZM152.842 30.7178C151.799 32.0653 150.147 32.7173 148.104 32.7173C146.018 32.7173 144.409 32.0653 143.236 30.6309C142.062 29.2835 141.497 27.3275 141.497 24.8499C141.497 22.2854 142.106 20.3294 143.236 18.9385C144.409 17.5476 146.018 16.8521 148.06 16.8521C150.016 16.8521 151.625 17.5041 152.755 18.8516C153.885 20.199 154.493 22.155 154.493 24.7195C154.493 27.3275 153.928 29.3704 152.842 30.7178ZM190.527 17.3737V12.7228H184.833V5.59435L184.659 5.63781L179.269 7.24606L179.139 7.28953V12.7228H170.619V9.68017C170.619 8.28925 170.967 7.2026 171.576 6.50714C172.184 5.81168 173.097 5.46395 174.227 5.46395C175.01 5.46395 175.835 5.63781 176.748 6.02901L176.965 6.15941V1.24772L176.835 1.20425C176.053 0.943457 175.009 0.769592 173.662 0.769592C171.967 0.769592 170.489 1.16079 169.142 1.81278C167.794 2.55171 166.794 3.55143 166.055 4.89889C165.317 6.20287 164.925 7.68073 164.925 9.37591V12.7228H160.97V17.3302H164.925V36.8031H170.619V17.3737H179.139V29.7616C179.139 34.8471 181.529 37.4116 186.311 37.4116C187.093 37.4116 187.919 37.2812 188.701 37.1508C189.527 36.977 190.136 36.7596 190.483 36.5858L190.527 36.5423V31.8914L190.31 32.0653C189.962 32.2826 189.658 32.4565 189.136 32.5869C188.701 32.7173 188.31 32.7608 188.006 32.7608C186.876 32.7608 186.093 32.5 185.528 31.848C185.007 31.2394 184.746 30.2397 184.746 28.7619V17.3737H190.527Z" fill="#F89D21" fill-opacity="0.6"/>
</svg>
